<svg version="1.1" xmlns="http://www.w3.org/2000/svg" xmlns:xlink="http://www.w3.org/1999/xlink" width="538.5" height="404.58333"><g transform="translate(24.58332,3.5)"><g data-paper-data="{&quot;isPaintingLayer&quot;:true}" fill="none" fill-rule="nonzero" stroke="none" stroke-width="none" stroke-linecap="none" stroke-linejoin="miter" stroke-miterlimit="10" stroke-dasharray="" stroke-dashoffset="0" font-family="none" font-weight="none" font-size="none" text-anchor="none" style="mix-blend-mode: normal"><g><path d="M-17.14707,195.45652v-198.95652h500.14706v198.95652z" data-paper-data="{&quot;origPos&quot;:null}" fill="#66fff2" stroke="none" stroke-width="NaN" stroke-linecap="butt"/><g><path d="M-24.33332,400.83333v-189h538v189z" data-paper-data="{&quot;origPos&quot;:null}" fill="#0093e3" stroke="#0093e3" stroke-width="0.5" stroke-linecap="butt"/><path d="M-4.99999,212.5v-18h489v18z" fill="#d6d6d6" stroke="#000000" stroke-width="0.5" stroke-linecap="butt"/><path d="M361.00001,31.5h21" data-paper-data="{&quot;origPos&quot;:null}" fill="none" stroke="#fcfcfc" stroke-width="26.5" stroke-linecap="round"/><path d="M13.00001,65.5h26" data-paper-data="{&quot;origPos&quot;:null}" fill="none" stroke="#fcfcfc" stroke-width="26.5" stroke-linecap="round"/><path d="M349.00001,22.5h6" data-paper-data="{&quot;origPos&quot;:null}" fill="none" stroke="#fcfcfc" stroke-width="26.5" stroke-linecap="round"/><path d="M280.14983,27.49626l-0.29963,-5.99251" data-paper-data="{&quot;origPos&quot;:null,&quot;origRot&quot;:0}" fill="none" stroke="#fcfcfc" stroke-width="26.5" stroke-linecap="round"/><path d="M287.00001,32.5h-21" data-paper-data="{&quot;origPos&quot;:null}" fill="none" stroke="#fcfcfc" stroke-width="26.5" stroke-linecap="round"/><g data-paper-data="{&quot;origPos&quot;:null}" fill="none" stroke-linecap="round"><path d="M181.33334,193.16667v-18" data-paper-data="{&quot;origPos&quot;:null}" stroke="#c49800" stroke-width="3.5"/><g data-paper-data="{&quot;origPos&quot;:null}" stroke-width="10"><path d="M179.66669,172.50001v-14.33334" data-paper-data="{&quot;origPos&quot;:null}" stroke="#14bf00"/><path d="M183.66669,158.16667v14.33334" data-paper-data="{&quot;origPos&quot;:null}" stroke="#00e53b"/></g></g><g data-paper-data="{&quot;origPos&quot;:null}" fill="none" stroke-linecap="round"><path d="M217.33334,174.83333v18" data-paper-data="{&quot;origPos&quot;:null}" stroke="#c49800" stroke-width="3.5"/><g data-paper-data="{&quot;origPos&quot;:null}" stroke-width="10"><path d="M215.66668,157.83333v14.33334" data-paper-data="{&quot;origPos&quot;:null}" stroke="#14bf00"/><path d="M219.66668,157.83333v14.33334" data-paper-data="{&quot;origPos&quot;:null}" stroke="#00e53b"/></g></g><g data-paper-data="{&quot;origPos&quot;:null}" fill="none" stroke-linecap="round"><path d="M290.00001,193.16667v-18" data-paper-data="{&quot;origPos&quot;:null}" stroke="#c49800" stroke-width="3.5"/><g data-paper-data="{&quot;origPos&quot;:null}" stroke-width="10"><path d="M288.33333,172.50001v-14.33334" data-paper-data="{&quot;origPos&quot;:null}" stroke="#14bf00"/><path d="M292.33333,172.50001v-14.33334" data-paper-data="{&quot;origPos&quot;:null}" stroke="#00e53b"/></g></g><g data-paper-data="{&quot;origPos&quot;:null}" fill="none" stroke-linecap="round"><path d="M465.66669,193.16667v-18" data-paper-data="{&quot;origPos&quot;:null}" stroke="#c49800" stroke-width="3.5"/><g data-paper-data="{&quot;origPos&quot;:null}" stroke-width="10"><path d="M464.00001,158.16667v14.33334" data-paper-data="{&quot;origPos&quot;:null}" stroke="#14bf00"/><path d="M468.00001,172.50001v-14.33334" data-paper-data="{&quot;origPos&quot;:null}" stroke="#00e53b"/></g></g><path d="M15.00001,194.5v-83h49v83z" data-paper-data="{&quot;origPos&quot;:null}" fill="#aaaaaa" stroke="#000000" stroke-width="0.5" stroke-linecap="butt"/><path d="M24.06435,131.72222v-8.88888h10v8.88888z" data-paper-data="{&quot;origPos&quot;:null}" fill="#00afff" stroke="#000000" stroke-width="0.5" stroke-linecap="butt"/><path d="M45.26318,131.6345v-8.88889h10v8.88889z" data-paper-data="{&quot;origPos&quot;:null}" fill="#00afff" stroke="#000000" stroke-width="0.5" stroke-linecap="butt"/><path d="M24.06435,146.45906v-8.88888h10v8.88888z" data-paper-data="{&quot;origPos&quot;:null}" fill="#00afff" stroke="#000000" stroke-width="0.5" stroke-linecap="butt"/><path d="M45.38014,146.72222v-8.88888h10v8.88888z" data-paper-data="{&quot;origPos&quot;:null}" fill="#00afff" stroke="#000000" stroke-width="0.5" stroke-linecap="butt"/><path d="M45.38014,161.08426v-8.88888h10v8.88888z" data-paper-data="{&quot;origPos&quot;:null}" fill="#00afff" stroke="#000000" stroke-width="0.5" stroke-linecap="butt"/><path d="M24.06435,161.19591v-8.88889h10v8.88889z" data-paper-data="{&quot;origPos&quot;:null}" fill="#00afff" stroke="#000000" stroke-width="0.5" stroke-linecap="butt"/><path d="M45.70708,176.57071v-8.88889h10v8.88889z" data-paper-data="{&quot;origPos&quot;:null}" fill="#00afff" stroke="#000000" stroke-width="0.5" stroke-linecap="butt"/><path d="M24.04041,176.72222v-8.88888h10v8.88888z" data-paper-data="{&quot;origPos&quot;:null}" fill="#00afff" stroke="#000000" stroke-width="0.5" stroke-linecap="butt"/><g stroke="#000000" stroke-width="0.5"><path d="M128.18183,163.37684l-40.01976,-0.08791l19.86166,-12.37154z" data-paper-data="{&quot;origPos&quot;:null}" fill="#ff0000" stroke-linecap="round"/><path d="M88.11506,194.55171v-30.86957h40.09745v30.86957z" data-paper-data="{&quot;origPos&quot;:null}" fill="#fff0a5" stroke-linecap="butt"/><g fill="#ffffff" stroke-linecap="butt"><path d="M93.38492,172.94752v-4.65518h5v4.65518z"/><path d="M104.76422,172.91585v-4.65517h5v4.65517z" data-paper-data="{&quot;origPos&quot;:null}"/><path d="M116.14353,172.98622v-4.65518h5v4.65518z" data-paper-data="{&quot;origPos&quot;:null}"/></g><g data-paper-data="{&quot;origPos&quot;:null}" fill="#ffffff" stroke-linecap="butt"><path d="M93.38492,181.81849v-4.65518h5v4.65518z"/><path d="M104.76422,181.78682v-4.65517h5v4.65517z" data-paper-data="{&quot;origPos&quot;:null}"/><path d="M116.14353,181.85719v-4.65518h5v4.65518z" data-paper-data="{&quot;origPos&quot;:null}"/></g><path d="M101.8882,194.47711v-10.96775h10.96774v10.96775z" fill="#ffffff" stroke-linecap="butt"/><path d="M91.08175,190.28356v-5.64516h9.19355v5.64516z" fill="#ffffff" stroke-linecap="butt"/><path d="M114.63013,190.28356v-5.64516h9.19355v5.64516z" data-paper-data="{&quot;origPos&quot;:null}" fill="#ffffff" stroke-linecap="butt"/></g><path d="M331.00001,194.5v-83h49v83z" data-paper-data="{&quot;origPos&quot;:null}" fill="#f8b9b9" stroke="#000000" stroke-width="0.5" stroke-linecap="butt"/><path d="M340.06435,130.72222v-8.88888h10v8.88888z" data-paper-data="{&quot;origPos&quot;:null}" fill="#00afff" stroke="#000000" stroke-width="0.5" stroke-linecap="butt"/><path d="M361.26318,130.6345v-8.88889h10v8.88889z" data-paper-data="{&quot;origPos&quot;:null}" fill="#00afff" stroke="#000000" stroke-width="0.5" stroke-linecap="butt"/><path d="M340.06435,145.45906v-8.88888h10v8.88888z" data-paper-data="{&quot;origPos&quot;:null}" fill="#00afff" stroke="#000000" stroke-width="0.5" stroke-linecap="butt"/><path d="M361.38014,145.72222v-8.88888h10v8.88888z" data-paper-data="{&quot;origPos&quot;:null}" fill="#00afff" stroke="#000000" stroke-width="0.5" stroke-linecap="butt"/><path d="M361.38014,160.08426v-8.88888h10v8.88888z" data-paper-data="{&quot;origPos&quot;:null}" fill="#00afff" stroke="#000000" stroke-width="0.5" stroke-linecap="butt"/><path d="M340.06435,160.19591v-8.88889h10v8.88889z" data-paper-data="{&quot;origPos&quot;:null}" fill="#00afff" stroke="#000000" stroke-width="0.5" stroke-linecap="butt"/><path d="M361.70709,175.57071v-8.88889h10v8.88889z" data-paper-data="{&quot;origPos&quot;:null}" fill="#00afff" stroke="#000000" stroke-width="0.5" stroke-linecap="butt"/><path d="M340.04042,175.72222v-8.88888h10v8.88888z" data-paper-data="{&quot;origPos&quot;:null}" fill="#00afff" stroke="#000000" stroke-width="0.5" stroke-linecap="butt"/><path d="M341.66669,111.5v-10.66666h27.33333v10.66666z" fill="#f8b9b9" stroke="#000000" stroke-width="0.5" stroke-linecap="butt"/><path d="M380.00001,194.5v-37h53.66667v37z" fill="#f8b9b9" stroke="#000000" stroke-width="0.5" stroke-linecap="butt"/><path d="M393.00001,194.5v-18h28v18z" data-paper-data="{&quot;origPos&quot;:null}" fill="#00afff" stroke="#000000" stroke-width="0.5" stroke-linecap="butt"/><path d="M385.00001,171.16667v-6.33333h6.66667v6.33333z" data-paper-data="{&quot;origPos&quot;:null}" fill="#00afff" stroke="#000000" stroke-width="0.5" stroke-linecap="butt"/><path d="M397.33336,171.16667v-6.33333h6.66667v6.33333z" data-paper-data="{&quot;origPos&quot;:null}" fill="#00afff" stroke="#000000" stroke-width="0.5" stroke-linecap="butt"/><path d="M410.33336,171.16667v-6.33333h6.66667v6.33333z" data-paper-data="{&quot;origPos&quot;:null}" fill="#00afff" stroke="#000000" stroke-width="0.5" stroke-linecap="butt"/><path d="M422.66669,171.16667v-6.33333h6.66666v6.33333z" data-paper-data="{&quot;origPos&quot;:null}" fill="#00afff" stroke="#000000" stroke-width="0.5" stroke-linecap="butt"/><g data-paper-data="{&quot;origPos&quot;:null}" fill="none" stroke-linecap="round"><path d="M315.66668,174.5v18" data-paper-data="{&quot;origPos&quot;:null}" stroke="#c49800" stroke-width="3.5"/><g data-paper-data="{&quot;origPos&quot;:null}" stroke-width="10"><path d="M314.00001,157.5v14.33334" data-paper-data="{&quot;origPos&quot;:null}" stroke="#14bf00"/><path d="M318.00001,171.83334v-14.33334" data-paper-data="{&quot;origPos&quot;:null}" stroke="#00e53b"/></g></g><g data-paper-data="{&quot;origPos&quot;:null}" fill="none" stroke-linecap="round"><path d="M4.33334,193.16667v-18" data-paper-data="{&quot;origPos&quot;:null}" stroke="#c49800" stroke-width="3.5"/><g data-paper-data="{&quot;origPos&quot;:null}" stroke-width="10"><path d="M2.66668,158.16667v14.33334" data-paper-data="{&quot;origPos&quot;:null}" stroke="#14bf00"/><path d="M6.66668,172.50001v-14.33334" data-paper-data="{&quot;origPos&quot;:null}" stroke="#00e53b"/></g></g><g data-paper-data="{&quot;origPos&quot;:null}" fill="none" stroke-linecap="round"><path d="M75.66666,174.83333v18" data-paper-data="{&quot;origPos&quot;:null}" stroke="#c49800" stroke-width="3.5"/><g data-paper-data="{&quot;origPos&quot;:null}" stroke-width="10"><path d="M74.00003,157.83333v14.33334" data-paper-data="{&quot;origPos&quot;:null}" stroke="#14bf00"/><path d="M78.00003,172.16667v-14.33334" data-paper-data="{&quot;origPos&quot;:null}" stroke="#00e53b"/></g></g><g data-paper-data="{&quot;origPos&quot;:null}" fill="none" stroke-linecap="round"><path d="M145.66668,175.16667v18" data-paper-data="{&quot;origPos&quot;:null}" stroke="#c49800" stroke-width="3.5"/><g data-paper-data="{&quot;origPos&quot;:null}" stroke-width="10"><path d="M144,172.50001v-14.33334" data-paper-data="{&quot;origPos&quot;:null}" stroke="#14bf00"/><path d="M148,158.16667v14.33334" data-paper-data="{&quot;origPos&quot;:null}" stroke="#00e53b"/></g></g><path d="M276.00001,161h-40.03333l6.66757,-7.96667h26.78188z" data-paper-data="{&quot;origPos&quot;:null}" fill="#9cbcbc" stroke="#000000" stroke-width="0.5" stroke-linecap="round"/><path d="M236.00002,194.43333v-33.4h39.8v33.4z" data-paper-data="{&quot;origPos&quot;:null}" fill="#a49dbd" stroke="#000000" stroke-width="0.5" stroke-linecap="butt"/><path d="M242.00002,168.63334v-4h4.2v4z" data-paper-data="{&quot;origPos&quot;:null}" fill="#b8edf6" stroke="#000000" stroke-width="0.5" stroke-linecap="butt"/><path d="M250.00002,168.63334v-4h4.2v4z" data-paper-data="{&quot;origPos&quot;:null}" fill="#b8edf6" stroke="#000000" stroke-width="0.5" stroke-linecap="butt"/><path d="M258.00001,168.83334v-4h4.2v4z" data-paper-data="{&quot;origPos&quot;:null}" fill="#b8edf6" stroke="#000000" stroke-width="0.5" stroke-linecap="butt"/><path d="M266.00001,168.83334v-4h4.2v4z" data-paper-data="{&quot;origPos&quot;:null}" fill="#b8edf6" stroke="#000000" stroke-width="0.5" stroke-linecap="butt"/><path d="M242.00002,177.03333v-4h4.2v4z" data-paper-data="{&quot;origPos&quot;:null}" fill="#b8edf6" stroke="#000000" stroke-width="0.5" stroke-linecap="butt"/><path d="M250.00002,177.03333v-4h4.2v4z" data-paper-data="{&quot;origPos&quot;:null}" fill="#b8edf6" stroke="#000000" stroke-width="0.5" stroke-linecap="butt"/><path d="M258.00001,177.23334v-4h4.2v4z" data-paper-data="{&quot;origPos&quot;:null}" fill="#b8edf6" stroke="#000000" stroke-width="0.5" stroke-linecap="butt"/><path d="M266.00001,177.23334v-4h4.2v4z" data-paper-data="{&quot;origPos&quot;:null}" fill="#b8edf6" stroke="#000000" stroke-width="0.5" stroke-linecap="butt"/><path d="M249.80001,194.43333v-13.4h12.2v13.4z" fill="#b8edf6" stroke="#000000" stroke-width="0.5" stroke-linecap="butt"/><path d="M242.00002,185.03333v-4h4.2v4z" data-paper-data="{&quot;origPos&quot;:null}" fill="#b8edf6" stroke="#000000" stroke-width="0.5" stroke-linecap="butt"/><path d="M242.00002,193.03333v-4h4.2v4z" data-paper-data="{&quot;origPos&quot;:null}" fill="#b8edf6" stroke="#000000" stroke-width="0.5" stroke-linecap="butt"/><path d="M266.00001,185.03334v-4h4.2v4z" data-paper-data="{&quot;origPos&quot;:null}" fill="#b8edf6" stroke="#000000" stroke-width="0.5" stroke-linecap="butt"/><path d="M266.00001,193.03334v-4h4.2v4z" data-paper-data="{&quot;origPos&quot;:null}" fill="#b8edf6" stroke="#000000" stroke-width="0.5" stroke-linecap="butt"/><path d="M249.80001,184.43333v-3.4h12.2v3.4z" fill="#a49dbd" stroke="#000000" stroke-width="0.5" stroke-linecap="butt"/></g></g></g></g></svg>